<svg xmlns="http://www.w3.org/2000/svg" viewBox="0 0 359.19 375.83"><defs><style>.cls-1{fill:#5b83c2;}.cls-2{fill:#5478b3;}.cls-3{fill:#eea886;}.cls-4{fill:#c5cddb;}.cls-5{fill:#e55353;}.cls-6{fill:#eb4747;}.cls-7{fill:#434343;}.cls-8{fill:#49699c;}.cls-9{fill:#525252;}.cls-10{fill:#d44d4d;}.cls-11{fill:#a77860;}</style></defs><title>Fichier 1</title><g id="Calque_2" data-name="Calque 2"><g id="Слой_1" data-name="Слой 1"><path class="cls-1" d="M359.14,281.15c-.87,6.1-37.53,31.77-44.74,36.9-5.79,4.12-10.83,6-19.59,9.3h0C274.91,332.57,150,369.83,150,369.83a15.79,15.79,0,0,0-1.24-3.8c-4.66,1.86-9.46,3.06-12.51,4-4.65,1.45-41.55,2.62-49.1,4.07s-22.66,3.78-28.76-2,3.78-18.3,12.2-21.5,39.22-4.07,44.74-4.65,12.78-2.61,16.27-1.45c1.1.37,6-1.06,12.12-3.19-.15-2.26-.19-3.69-.19-3.69l32.79-9.45-6.07-58.05s14.26-53.75,71.25-12.75c0,0,12.71,3.74,17.07,4.9a4.83,4.83,0,0,0,1.46,0c8.69-.65,46-12,59.55-12,14.53,0,19.18-.87,24.4,1.74S360,275,359.14,281.15Z"/><path class="cls-1" d="M300.76,372.09c-6.1,5.81-21.21,3.49-28.76,2s-44.45-2.62-49.1-4.07-13.37-3.49-19.47-7.55a19.73,19.73,0,0,0-3.26-1.43h0l-9.23,6.66L62.64,326.89C55,324.78,48.86,321.57,44.79,318,38.11,312.23.92,287.25,0,281.15s9.88-26.44,15.11-29.05,9.88-1.74,24.4-1.74,56.66,13.07,61,11.91c2-.53,6.08-2.62,10-4.74,4.66-2.54,9-5.14,9-5.14,62.4-27.85,69.34,17.72,69.34,17.72l-3.69,56.27s5.2,2.58,12,5.79l30.93,8.74-4,2.92c1.75.56,3,.82,3.49.65,3.49-1.16,10.75.87,16.27,1.45s36.32,1.45,44.74,4.65S306.86,366.27,300.76,372.09Z"/><path class="cls-2" d="M110.55,257.52c4.3.3,33.38,17.14,40.28,21.17-10.49-5.48-50.25-16.43-50.25-16.43C102.56,261.73,106.66,259.64,110.55,257.52Z"/><path class="cls-2" d="M260.08,262.3S210,274.46,200.82,279.54c.42-.3,26.4-20,40-22.68,0,0,13.4,4.23,17.76,5.39a4.83,4.83,0,0,0,1.46,0Z"/><path class="cls-3" d="M300.76,372.09c-6.1,5.81-21.21,3.49-28.76,2s-44.45-2.62-49.1-4.07c-1.34-.42-3-.88-4.86-1.43h0c-4.58-1.36-10.26-3.23-14.61-6.12a19.73,19.73,0,0,0-3.26-1.43l23.22-16.75.67-.48c1.75.56,3,.82,3.49.65,3.49-1.16,10.75.87,16.27,1.45s36.32,1.45,44.74,4.65S306.86,366.27,300.76,372.09Z"/><path class="cls-4" d="M300.76,372.09c-6.1,5.81-21.21,3.49-28.76,2s-44.45-2.62-49.1-4.07c-1.34-.42-3-.88-4.86-1.43h0s10.16-10,5.36-24.31l.67-.48c1.75.56,3,.82,3.49.65,3.49-1.16,10.75.87,16.27,1.45s36.32,1.45,44.74,4.65S306.86,366.27,300.76,372.09Z"/><path class="cls-5" d="M123.29,270.34c.07.15.05.27,0,.34C122.66,271.12,122.75,270.93,123.29,270.34Z"/><path class="cls-6" d="M291.2,202.41c-.48-1-27-42.61-34.12-61.59s-24.4-27.7-32.54-30.41c-2.9-1-8.07-2.65-13.53-4.42-9.83-3.18-20.56-6.62-20.56-6.62h-33.9s-11.74,3.93-24.21,8.3h0c-11.49,4-23.6,8.43-27.68,10.48-8.52,4.26-22.85,34.67-25.76,38.16s-25.25,44.9-28.47,60.82c-2.5,12.36,70.87,48.58,72.88,53.21,2.32-2.58,13-12.82,13-12.82s-3.42-2.15-8.24-5.32c19.65.9,67.68-.79,74.57-.45a34.85,34.85,0,0,0,4.44-.1h0c2.13,1.55,15.89,13.7,15.89,13.7s33.9-14.07,49.48-29.83C294.57,213.16,293.64,207.35,291.2,202.41ZM98.47,230c-7.26-8.72-17.26-14-14.74-17.86s23.82-40.68,23.82-40.68,11,24.21,14.14,36.8,2.86,18.35,1.55,22.27c-1.17,3.51-2.11,5.9-3.17,16.36C111.39,240.92,101.8,234,98.47,230Zm149.87-4.16c-2.85,3.24-14.12,10.4-24.25,16.29-.77-7-1.94-18.08-2.06-22.05-.19-6,2.32-23.24,5.42-29.83s5.23-24.6,5.23-24.6,25.66,34.86,29.73,38.55S258,214.86,248.34,225.8Z"/><path class="cls-3" d="M177.54,6.2S204.05,10.38,200,51.85s-27.43,38.08-29,38-23.49.76-25.2-49.88C145.82,40,145.08,2.56,177.54,6.2Z"/><path class="cls-3" d="M200.42,40.14s2.9-3.1,4,0-4,17.14-4.14,17.79c0,0-.53,1.22-1.23.55S200.42,40.14,200.42,40.14Z"/><path class="cls-3" d="M146.54,39.61s-2.84-3.16-4,0,3.58,17.21,3.79,17.87c0,0,.51,1.23,1.22.57S146.54,39.61,146.54,39.61Z"/><path class="cls-7" d="M200.41,46.5l-3.79,5.07s.11-11.12-.5-12.87-1.54-7.07-2-8.33-22.77-7.49-42.42,1.82c0,0,.87,8-1,8.71s-1,13-1,13l-3.12-3.52s-4.78-31.91-3.6-35.23,4.94-23.32,45.27-11.45c0,0,12.57-2.66,15.1,6S200.41,46.5,200.41,46.5Z"/><path class="cls-8" d="M138.54,311.71S98,287.39,80.24,283.57c-16.75-3.62-22.86-9.88-22.86-9.88s26.63,0,44.36,12.59C113.77,294.83,138.54,311.71,138.54,311.71Z"/><path class="cls-8" d="M174.59,328.67s70.58-37.06,99.39-45.1c16.5-4.6,22.86-9.88,22.86-9.88s-43.63,4.26-70.17,20.24C214,301.55,174.59,328.67,174.59,328.67Z"/><path class="cls-3" d="M148.8,366c-4.66,1.86-9.46,3.06-12.51,4-4.65,1.45-41.55,2.62-49.1,4.07s-22.66,3.78-28.76-2,3.78-18.3,12.2-21.5,39.22-4.07,44.74-4.65,12.78-2.61,16.27-1.45c1.1.37,6-1.06,12.12-3.19C144,345,148.8,366,148.8,366Z"/><path class="cls-1" d="M174.59,362.52,244,342l-13.72-4.19S174.81,357.9,174.59,362.52Z"/><polygon class="cls-8" points="174.59 362.52 207.06 352.62 184.55 365.69 174.59 362.52"/><path class="cls-9" d="M152.29,279.54l-1.46-.86A14.09,14.09,0,0,1,152.29,279.54Z"/><path class="cls-4" d="M136.3,370.05c-4.65,1.45-41.55,2.62-49.1,4.07s-22.66,3.78-28.76-2,3.78-18.3,12.2-21.5,39.22-4.07,44.74-4.65,12.78-2.61,16.27-1.45C131.65,344.48,122.33,358.72,136.3,370.05Z"/><path class="cls-10" d="M211,106s-11.12,48.84-37.59,48.84-41.1-47.15-41.1-47.15h0c12.47-4.37,24.21-8.3,24.21-8.3h33.9S201.19,102.81,211,106Z"/><path class="cls-9" d="M113.36,273.69l-10.69-60.82,138.24-3.2L232,269.52s-44.12,16.15-59.1,25.57C172.9,295.1,135.06,279.54,113.36,273.69Z"/><path class="cls-3" d="M190.8,99.48a.79.79,0,0,0,0-.11c-1.65-3.69-.85-21.7-.85-21.7s-33.76-8.59-32.8-2-2.91,24.51-2.91,24.51l-17.32,5.93s18.46,49.55,39.66,43.16,29.22-44.94,29.22-44.94Z"/><path class="cls-11" d="M158,83.35A19.09,19.09,0,0,0,172.49,90c6.21,0,10.57-1.65,16.76-7.68,0,0-2.59,11.37-16.72,12.43C172.53,94.72,162.66,96.42,158,83.35Z"/></g></g></svg>